Coordinates
version=1
nRows=9
nColumns=24
inDegrees=yes

Units are S.I. units (second, meters, Newtons, ...)
Angles are in degrees.

endheader
time	pelvis_tilt	pelvis_list	pelvis_rotation	pelvis_tx	pelvis_ty	pelvis_tz	hip_flexion_r	hip_adduction_r	hip_rotation_r	knee_angle_r	ankle_angle_r	subtalar_angle_r	mtp_angle_r	hip_flexion_l	hip_adduction_l	hip_rotation_l	knee_angle_l	ankle_angle_l	subtalar_angle_l	mtp_angle_l	lumbar_extension	lumbar_bending	lumbar_rotation
      0.47100000	     -3.60124628	      1.12163770	      4.85257230	     -0.73060669	      0.89170130	      0.31909653	     32.56800835	     -0.78634995	     -8.34114425	    -21.77943681	      6.48253421	      4.13809230	      0.71709022	    -14.61219982	      2.18568334	      2.24457886	     -6.21902224	     14.27938602	     -0.15527729	      1.11620587	     -6.06862004	     -2.89247319	     -9.02763730
      0.47516667	     -3.70370093	      1.13763855	      4.95172420	     -0.72481608	      0.89032830	      0.31924915	     32.57182812	     -0.70748984	     -8.05858638	    -21.46144168	      6.37269664	      3.80719136	      4.26693575	    -14.55505820	      2.11897936	      2.21696682	     -6.93178187	     14.44622000	      0.12849819	      6.84409391	     -5.92287768	     -2.90056092	     -9.01003486
      0.47933333	     -3.73569323	      1.09349289	      5.04887062	     -0.71894267	      0.88913064	      0.31942528	     32.46088710	     -0.55349232	     -7.77848982	    -21.17298660	      6.28562260	      3.43128647	      4.23941923	    -14.59762576	      1.99022012	      2.32716380	     -7.60930460	     14.61150110	      0.22485846	      6.90895477	     -5.85224224	     -2.81890434	     -9.04523428
      0.48350000	     -3.80823517	      1.07150927	      5.12688888	     -0.71309410	      0.88785916	      0.31964598	     32.43414722	     -0.41872536	     -7.47992452	    -21.06017348	      6.20201946	      3.04664303	      4.21643375	    -14.54570643	      1.88987117	      2.35569321	     -8.39782495	     14.82549917	      0.45002794	      7.00804077	     -5.74620744	     -2.76416248	     -9.01968197
      0.48766667	     -3.87171889	      1.04134451	      5.19226888	     -0.70720123	      0.88663931	      0.31990748	     32.40057611	     -0.26982578	     -7.19880998	    -21.04558936	      6.08259211	      2.62328377	      4.19729178	    -14.46525039	      1.77790031	      2.30109246	     -9.26303390	     14.99530633	      0.72496208	      7.15805655	     -5.62458151	     -2.71690561	     -8.97324297
      0.49183333	     -3.94520518	      1.00535837	      5.25248727	     -0.70130551	      0.88542642	      0.32018181	     32.39737672	     -0.11760729	     -6.93296797	    -21.15549765	      5.93737475	      2.17551263	      4.18698485	    -14.33886897	      1.66348959	      2.25859960	    -10.20543534	     15.15692357	      0.97641312	      7.35149479	     -5.49687659	     -2.65085855	     -8.90833562
      0.49600000	     -4.02582283	      0.96466460	      5.29669971	     -0.69537691	      0.88423697	      0.32050551	     32.41506655	      0.04684506	     -6.66858348	    -21.37090693	      5.76139800	      1.70242176	      4.18610712	    -14.18630211	      1.54774250	      2.20686581	    -11.18354709	     15.27114418	      1.21680257	      7.59033687	     -5.36241733	     -2.58193125	     -8.82194183
      0.50016667	     -4.06177259	      0.89556729	      5.32765238	     -0.68941125	      0.88313739	      0.32087107	     32.38987063	      0.25006539	     -6.41946680	    -21.66927250	      5.60009910	      1.19538534	      4.21294431	    -14.03707603	      1.38884338	      2.04889906	    -12.25738749	     15.43973028	      1.62029942	      8.17912654	     -5.28332327	     -2.46915923	     -8.70112238
      0.50433333	     -4.18215825	      0.87293044	      5.37040168	     -0.68348084	      0.88197352	      0.32119757	     32.49304376	      0.38016948	     -6.20744714	    -22.11187948	      5.42020275	      0.75439578	      4.22018925	    -13.79959802	      1.31768830	      2.16236195	    -13.31810267	     15.43755817	      1.55339162	      8.34627736	     -5.08982739	     -2.41813014	     -8.59804079
